<svg width="26" height="26" viewBox="0 0 26 26" fill="none" xmlns="http://www.w3.org/2000/svg">
<rect width="26" height="26" rx="13" fill="black"/>
<path d="M19.0594 13.0619C19.0594 9.72383 16.3395 7.00391 13.0014 7.00391C9.66328 7.00391 6.94336 9.72383 6.94336 13.0619C6.94336 16.0909 9.10694 18.5636 12.0123 18.9963V14.7928H10.5287V13.0619H12.0123V11.702C12.0123 10.2184 12.9396 9.35293 14.2995 9.35293C14.9795 9.35293 15.6595 9.47656 15.6595 9.47656V10.9602H14.8559C14.1141 10.9602 13.8668 11.3929 13.8668 11.8874V13.0001H15.5358L15.2268 14.731H13.805V18.9963C16.834 18.6254 19.0594 16.0909 19.0594 13.0619Z" fill="white"/>
</svg>
