<svg width="44" height="44" viewBox="0 0 44 44" fill="none" xmlns="http://www.w3.org/2000/svg">
<path d="M33.3739 7.63151C32.8618 7.63151 32.3612 7.78337 31.9354 8.06787C31.5096 8.35238 31.1777 8.75675 30.9818 9.22986C30.7858 9.70298 30.7345 10.2236 30.8344 10.7258C30.9343 11.2281 31.1809 11.6894 31.543 12.0515C31.9051 12.4136 32.3665 12.6602 32.8687 12.7601C33.371 12.86 33.8916 12.8088 34.3647 12.6128C34.8378 12.4168 35.2422 12.085 35.5267 11.6592C35.8112 11.2334 35.9631 10.7328 35.9631 10.2207C35.9631 9.53401 35.6903 8.87544 35.2047 8.38987C34.7191 7.9043 34.0606 7.63151 33.3739 7.63151ZM43.2991 12.853C43.2571 11.0628 42.9218 9.29162 42.3066 7.60994C41.758 6.17107 40.9041 4.86815 39.8037 3.79088C38.7353 2.68492 37.4293 1.83642 35.9846 1.30957C34.3074 0.67557 32.5342 0.332608 30.7415 0.295475C28.4544 0.166016 27.7208 0.166016 21.852 0.166016C15.9831 0.166016 15.2495 0.166016 12.9624 0.295475C11.1697 0.332608 9.39655 0.67557 7.71931 1.30957C6.2773 1.84176 4.97247 2.68953 3.90026 3.79088C2.7943 4.85931 1.9458 6.16526 1.41895 7.60994C0.784945 9.28718 0.441983 11.0604 0.40485 12.853C0.275391 15.1402 0.275391 15.8738 0.275391 21.7426C0.275391 27.6114 0.275391 28.345 0.40485 30.6322C0.441983 32.4248 0.784945 34.198 1.41895 35.8753C1.9458 37.3199 2.7943 38.6259 3.90026 39.6943C4.97247 40.7957 6.2773 41.6434 7.71931 42.1756C9.39655 42.8096 11.1697 43.1526 12.9624 43.1897C15.2495 43.3192 15.9831 43.3192 21.852 43.3192C27.7208 43.3192 28.4544 43.3192 30.7415 43.1897C32.5342 43.1526 34.3074 42.8096 35.9846 42.1756C37.4293 41.6488 38.7353 40.8003 39.8037 39.6943C40.9089 38.6211 41.7636 37.317 42.3066 35.8753C42.9218 34.1936 43.2571 32.4224 43.2991 30.6322C43.2991 28.345 43.4286 27.6114 43.4286 21.7426C43.4286 15.8738 43.4286 15.1402 43.2991 12.853ZM39.4153 30.3732C39.3996 31.7429 39.1516 33.0999 38.6817 34.3865C38.3372 35.3255 37.7839 36.1739 37.0635 36.8678C36.3636 37.5809 35.5169 38.1331 34.5822 38.486C33.2956 38.9559 31.9385 39.2039 30.5689 39.2196C28.4113 39.3275 27.6129 39.3491 21.9383 39.3491C16.2636 39.3491 15.4653 39.3491 13.3076 39.2196C11.8855 39.2463 10.4695 39.0273 9.12179 38.5723C8.22805 38.2014 7.42017 37.6506 6.74837 36.9541C6.03221 36.2609 5.4858 35.4118 5.1517 34.4728C4.62492 33.1677 4.33275 31.7799 4.28864 30.3732C4.28864 28.2156 4.15918 27.4172 4.15918 21.7426C4.15918 16.068 4.15918 15.2696 4.28864 13.112C4.29831 11.7118 4.55392 10.3242 5.04382 9.01242C5.42367 8.10169 6.0067 7.28987 6.74837 6.63899C7.40389 5.89712 8.21404 5.30792 9.12179 4.91286C10.437 4.43827 11.8232 4.19022 13.2213 4.17926C15.379 4.17926 16.1773 4.0498 21.852 4.0498C27.5266 4.0498 28.325 4.0498 30.4826 4.17926C31.8522 4.19497 33.2093 4.44303 34.4959 4.91286C35.4764 5.27676 36.3564 5.86838 37.0635 6.63899C37.7705 7.30178 38.323 8.1121 38.6817 9.01242C39.1613 10.3263 39.4095 11.7133 39.4153 13.112C39.5232 15.2696 39.5448 16.068 39.5448 21.7426C39.5448 27.4172 39.5232 28.2156 39.4153 30.3732ZM21.852 10.6738C19.6637 10.6781 17.5258 11.3309 15.7084 12.5497C13.891 13.7686 12.4756 15.4988 11.6411 17.5217C10.8067 19.5446 10.5906 21.7695 11.0201 23.9152C11.4496 26.0609 12.5055 28.0312 14.0544 29.577C15.6032 31.1229 17.5755 32.1749 19.7221 32.6003C21.8686 33.0256 24.0931 32.8051 26.1144 31.9667C28.1357 31.1283 29.8631 29.7096 31.0784 27.8898C32.2937 26.0701 32.9423 23.9309 32.9423 21.7426C32.9452 20.2864 32.6601 18.844 32.1035 17.4984C31.5469 16.1528 30.7298 14.9305 29.6991 13.9018C28.6684 12.8731 27.4445 12.0583 26.0978 11.5044C24.7511 10.9504 23.3082 10.6681 21.852 10.6738ZM21.852 28.9276C20.4309 28.9276 19.0418 28.5062 17.8602 27.7167C16.6786 26.9272 15.7577 25.8051 15.2139 24.4922C14.6701 23.1793 14.5278 21.7346 14.805 20.3409C15.0823 18.9471 15.7666 17.6669 16.7714 16.662C17.7763 15.6572 19.0565 14.9729 20.4503 14.6957C21.844 14.4184 23.2887 14.5607 24.6016 15.1045C25.9144 15.6483 27.0366 16.5693 27.8261 17.7508C28.6156 18.9324 29.037 20.3215 29.037 21.7426C29.037 22.6861 28.8511 23.6205 28.4901 24.4922C28.129 25.3639 27.5997 26.156 26.9325 26.8232C26.2654 27.4904 25.4733 28.0196 24.6016 28.3807C23.7298 28.7418 22.7955 28.9276 21.852 28.9276Z" fill="#121212" fill-opacity="0.6"/>
</svg>
