<svg width="44" height="44" viewBox="0 0 44 44" fill="none" xmlns="http://www.w3.org/2000/svg">
<path d="M40.1034 0.166317H3.55262C3.14175 0.160611 2.73379 0.235896 2.35202 0.387874C1.97026 0.539851 1.62217 0.765544 1.32763 1.05206C1.0331 1.33858 0.797895 1.68031 0.635446 2.05774C0.472997 2.43517 0.386487 2.8409 0.380859 3.25177V40.234C0.386487 40.6449 0.472997 41.0506 0.635446 41.4281C0.797895 41.8055 1.0331 42.1472 1.32763 42.4337C1.62217 42.7203 1.97026 42.946 2.35202 43.0979C2.73379 43.2499 3.14175 43.3252 3.55262 43.3195H40.1034C40.5142 43.3252 40.9222 43.2499 41.304 43.0979C41.6857 42.946 42.0338 42.7203 42.3283 42.4337C42.6229 42.1472 42.8581 41.8055 43.0205 41.4281C43.183 41.0506 43.2695 40.6449 43.2751 40.234V3.25177C43.2695 2.8409 43.183 2.43517 43.0205 2.05774C42.8581 1.68031 42.6229 1.33858 42.3283 1.05206C42.0338 0.765544 41.6857 0.539851 41.304 0.387874C40.9222 0.235896 40.5142 0.160611 40.1034 0.166317ZM13.3915 36.2855H6.91857V16.8666H13.3915V36.2855ZM10.1551 14.1479C9.26235 14.1479 8.40621 13.7933 7.77497 13.1621C7.14373 12.5308 6.78911 11.6747 6.78911 10.782C6.78911 9.88929 7.14373 9.03315 7.77497 8.40191C8.40621 7.77068 9.26235 7.41605 10.1551 7.41605C10.6291 7.36229 11.1091 7.40926 11.5637 7.55389C12.0184 7.69852 12.4373 7.93754 12.7931 8.2553C13.149 8.57306 13.4337 8.9624 13.6286 9.39782C13.8235 9.83324 13.9243 10.3049 13.9243 10.782C13.9243 11.2591 13.8235 11.7308 13.6286 12.1662C13.4337 12.6016 13.149 12.9909 12.7931 13.3087C12.4373 13.6265 12.0184 13.8655 11.5637 14.0101C11.1091 14.1547 10.6291 14.2017 10.1551 14.1479ZM36.7374 36.2855H30.2644V25.864C30.2644 23.2533 29.3366 21.5487 26.9848 21.5487C26.2569 21.554 25.5482 21.7823 24.9541 22.2029C24.36 22.6234 23.909 23.2159 23.662 23.9006C23.4931 24.4077 23.42 24.9418 23.4462 25.4757V36.2639H16.9733C16.9733 36.2639 16.9733 18.6143 16.9733 16.845H23.4462V19.5852C24.0343 18.5649 24.8895 17.7243 25.9199 17.154C26.9502 16.5837 28.1166 16.3053 29.2935 16.3488C33.6088 16.3488 36.7374 19.1321 36.7374 25.1089V36.2855Z" fill="#121212" fill-opacity="0.6"/>
</svg>
