<svg width="54" height="55" viewBox="0 0 54 55" fill="none" xmlns="http://www.w3.org/2000/svg">
<rect width="54" height="55" rx="27" fill="black"/>
<g clip-path="url(#clip0_3584_133)">
<rect x="6.38086" y="5.16602" width="42.8942" height="43.1538" rx="21.4471" fill="white"/>
<path d="M46.1034 5.16632H9.55262C9.14175 5.16061 8.73379 5.2359 8.35202 5.38787C7.97026 5.53985 7.62217 5.76554 7.32763 6.05206C7.0331 6.33858 6.7979 6.68031 6.63545 7.05774C6.473 7.43517 6.38649 7.8409 6.38086 8.25177V45.234C6.38649 45.6449 6.473 46.0506 6.63545 46.4281C6.7979 46.8055 7.0331 47.1472 7.32763 47.4337C7.62217 47.7203 7.97026 47.946 8.35202 48.0979C8.73379 48.2499 9.14175 48.3252 9.55262 48.3195H46.1034C46.5142 48.3252 46.9222 48.2499 47.304 48.0979C47.6857 47.946 48.0338 47.7203 48.3283 47.4337C48.6229 47.1472 48.8581 46.8055 49.0205 46.4281C49.183 46.0506 49.2695 45.6449 49.2751 45.234V8.25177C49.2695 7.8409 49.183 7.43517 49.0205 7.05774C48.8581 6.68031 48.6229 6.33858 48.3283 6.05206C48.0338 5.76554 47.6857 5.53985 47.304 5.38787C46.9222 5.2359 46.5142 5.16061 46.1034 5.16632ZM19.3915 41.2855H12.9186V21.8666H19.3915V41.2855ZM16.1551 19.1479C15.2623 19.1479 14.4062 18.7933 13.775 18.1621C13.1437 17.5308 12.7891 16.6747 12.7891 15.782C12.7891 14.8893 13.1437 14.0331 13.775 13.4019C14.4062 12.7707 15.2623 12.4161 16.1551 12.4161C16.6291 12.3623 17.1091 12.4093 17.5637 12.5539C18.0184 12.6985 18.4373 12.9375 18.7931 13.2553C19.149 13.5731 19.4337 13.9624 19.6286 14.3978C19.8235 14.8332 19.9243 15.3049 19.9243 15.782C19.9243 16.2591 19.8235 16.7308 19.6286 17.1662C19.4337 17.6016 19.149 17.9909 18.7931 18.3087C18.4373 18.6265 18.0184 18.8655 17.5637 19.0101C17.1091 19.1547 16.6291 19.2017 16.1551 19.1479ZM42.7374 41.2855H36.2644V30.864C36.2644 28.2533 35.3366 26.5487 32.9848 26.5487C32.2569 26.554 31.5482 26.7823 30.9541 27.2029C30.36 27.6234 29.909 28.2159 29.662 28.9006C29.4931 29.4077 29.42 29.9418 29.4462 30.4757V41.2639H22.9733C22.9733 41.2639 22.9733 23.6143 22.9733 21.845H29.4462V24.5852C30.0343 23.5649 30.8895 22.7243 31.9199 22.154C32.9502 21.5837 34.1166 21.3053 35.2935 21.3488C39.6088 21.3488 42.7374 24.1321 42.7374 30.1089V41.2855Z" fill="#010101"/>
</g>
<defs>
<clipPath id="clip0_3584_133">
<rect x="6.38086" y="5.16602" width="42.8942" height="43.1538" rx="21.4471" fill="white"/>
</clipPath>
</defs>
</svg>
