<svg width="88" height="84" viewBox="0 0 88 84" fill="none" xmlns="http://www.w3.org/2000/svg">
<rect width="88" height="84" rx="42" fill="black"/>
<path d="M66.2188 16.8607C65.6452 16.0651 64.7259 15.627 63.63 15.627C63.1154 15.627 62.5638 15.7239 61.9907 15.9151L17.5922 30.7145C16.0587 31.2257 15.0017 32.2703 14.6922 33.5808C14.3828 34.8913 14.8609 36.2986 16.004 37.4421C16.1158 37.5539 16.2443 37.6477 16.3848 37.7202L35.0771 47.3556L44.7129 66.0481C44.7853 66.1885 44.8791 66.3169 44.9909 66.4287C45.9095 67.3474 46.9689 67.8331 48.0548 67.8332H48.0551C49.6996 67.8332 51.1035 66.6863 51.7184 64.8406L66.5181 20.4423C66.9834 19.0459 66.877 17.774 66.2188 16.8607ZM17.6693 34.2838C17.7278 34.0357 18.069 33.7801 18.5595 33.6165L60.7001 19.5696L35.9209 44.3489L18.0219 35.1226C17.7523 34.8075 17.6191 34.4967 17.6693 34.2838ZM48.8164 63.8733C48.6712 64.3088 48.3951 64.7741 48.0551 64.7741C47.8491 64.7741 47.5795 64.6408 47.3105 64.4107L38.0838 46.5119L62.8638 21.732L48.8164 63.8733Z" fill="white"/>
</svg>
