<svg width="53" height="44" viewBox="0 0 53 44" fill="none" xmlns="http://www.w3.org/2000/svg">
<path d="M52.5495 5.55959C50.5844 6.41213 48.5062 6.97571 46.3796 7.2328C48.6232 5.89246 50.3045 3.78385 51.1116 1.29814C49.0033 2.55321 46.6953 3.43748 44.2881 3.91253C42.679 2.16761 40.5363 1.0061 38.196 0.610162C35.8557 0.214226 33.4502 0.606259 31.3567 1.72478C29.2633 2.84329 27.6002 4.62503 26.6285 6.79054C25.6567 8.95606 25.4312 11.3829 25.9873 13.6903C21.7244 13.4747 17.5545 12.3647 13.7485 10.4325C9.94246 8.50018 6.58553 5.78886 3.89572 2.47461C2.95229 4.12212 2.45655 5.98789 2.45781 7.8864C2.45446 9.6495 2.88714 11.3861 3.7173 12.9415C4.54747 14.4969 5.74937 15.8229 7.216 16.8015C5.51136 16.7551 3.84314 16.2977 2.35323 15.4681V15.5989C2.36601 18.0692 3.23165 20.4592 4.80374 22.3648C6.37583 24.2704 8.55785 25.5744 10.9807 26.0564C10.0481 26.3403 9.07973 26.4899 8.10489 26.5009C7.43009 26.493 6.75697 26.4318 6.09181 26.3179C6.78177 28.4429 8.11698 30.3 9.91163 31.6307C11.7063 32.9615 13.8711 33.6997 16.1049 33.7427C12.3329 36.7108 7.67583 38.3306 2.87611 38.3441C2.00221 38.3469 1.12901 38.2945 0.261719 38.1872C5.16221 41.3513 10.873 43.0309 16.7062 43.0238C20.7316 43.0656 24.7249 42.3049 28.453 40.7861C32.1811 39.2673 35.5691 37.0209 38.4193 34.178C41.2694 31.3352 43.5246 27.9529 45.0529 24.2287C46.5813 20.5046 47.3522 16.5132 47.3208 12.4877C47.3208 12.0433 47.3208 11.5727 47.3208 11.1021C49.3723 9.57219 51.1416 7.69666 52.5495 5.55959Z" fill="#121212" fill-opacity="0.6"/>
</svg>
