<svg width="26" height="26" viewBox="0 0 26 26" fill="none" xmlns="http://www.w3.org/2000/svg">
<rect width="26" height="26" rx="13" fill="black"/>
<g clip-path="url(#clip0_427_9241)">
<path fill-rule="evenodd" clip-rule="evenodd" d="M17.4931 8.48892C16.3048 7.29923 14.7245 6.64376 13.0409 6.64307C9.57171 6.64307 6.74828 9.46642 6.74689 12.9366C6.74642 14.0459 7.03621 15.1287 7.58702 16.0832L6.69409 19.3446L10.0307 18.4694C10.95 18.9709 11.985 19.2352 13.0384 19.2355H13.041C16.5098 19.2355 19.3336 16.4119 19.3349 12.9416C19.3356 11.2598 18.6815 9.67853 17.4931 8.48892ZM13.0409 18.1725H13.0387C12.1001 18.1722 11.1795 17.9199 10.3762 17.4433L10.1852 17.3299L8.20527 17.8493L8.73375 15.9189L8.60933 15.721C8.08565 14.8881 7.80912 13.9254 7.80959 12.9369C7.81067 10.0527 10.1575 7.70608 13.043 7.70608C14.4403 7.70654 15.7538 8.25138 16.7415 9.2402C17.7291 10.229 18.2727 11.5434 18.2723 12.9412C18.271 15.8257 15.9244 18.1725 13.0409 18.1725ZM15.9104 14.2545C15.7532 14.1758 14.98 13.7954 14.8358 13.7429C14.6917 13.6904 14.5868 13.6643 14.482 13.8217C14.3771 13.979 14.0758 14.3333 13.984 14.4382C13.8922 14.5432 13.8006 14.5563 13.6433 14.4776C13.486 14.3989 12.9793 14.2328 12.3786 13.697C11.9111 13.28 11.5955 12.765 11.5037 12.6076C11.4121 12.4501 11.5029 12.3732 11.5727 12.2867C11.7429 12.0753 11.9134 11.8536 11.9658 11.7487C12.0183 11.6438 11.992 11.5519 11.9526 11.4732C11.9134 11.3945 11.5989 10.6204 11.4679 10.3055C11.3401 9.99893 11.2106 10.0403 11.114 10.0355C11.0223 10.031 10.9175 10.03 10.8126 10.03C10.7078 10.03 10.5374 10.0693 10.3932 10.2269C10.249 10.3843 9.84281 10.7647 9.84281 11.5388C9.84281 12.3129 10.4063 13.0607 10.4849 13.1656C10.5636 13.2706 11.5939 14.8591 13.1715 15.5402C13.5467 15.7024 13.8396 15.7991 14.068 15.8715C14.4448 15.9912 14.7875 15.9743 15.0586 15.9339C15.3608 15.8887 15.9889 15.5534 16.1201 15.1861C16.2511 14.8187 16.2511 14.5039 16.2117 14.4382C16.1725 14.3726 16.0676 14.3333 15.9104 14.2545Z" fill="white"/>
</g>
<defs>
<clipPath id="clip0_427_9241">
<rect width="13.5483" height="13.5483" fill="white" transform="translate(6.22632 6.22705)"/>
</clipPath>
</defs>
</svg>
